#!OML:ASF E:\emotionWalksFemale\Project 1\Capture day 1\Session 1\Female1.ASF
:FULLY-SPECIFIED
:DEGREES
380
root 7.68775 15.6354 14.5488 -180.117 -0.2436 -179.408
lowerback 6.90888 1.31195 0.67096
upperback -4.83424 1.71417 -0.14767
thorax -8.97051 0.74049 -0.774991
lowerneck -8.00624 -2.61139 -5.46986
upperneck 12.3073 -3.73002 5.14598
head 5.21088 -1.8378 2.23305
rclavicle -1.51201e-014 -5.46658e-015
rhumerus -46.6462 21.1511 -103.412
rradius 34.8012
rwrist 20.2373
rhand -6.5179 -52.1388
rfingers 7.12502
rthumb 19.3344 -441.198
lclavicle -1.51201e-014 -5.46658e-015
lhumerus -43.0815 -6.92836 91.515
lradius 34.1639
lwrist -18.2831
lhand -2.98405 -34.392
lfingers 7.12502
lthumb 22.7293 -5.71079
rfemur 1.87237 19.9692 27.2939
rtibia 11.8618
rfoot -12.6123 -33.0622
rtoes 1.97583
lfemur -3.54997 -22.6989 -24.7214
ltibia 20.3285
lfoot -20.3478 25.0805
ltoes -23.0548
381
root 7.68707 15.6359 14.5543 -180.112 -0.362433 -179.457
lowerback 7.09523 1.27454 0.623212
upperback -4.9065 1.65621 -0.170992
thorax -9.16117 0.711535 -0.770258
lowerneck -7.94904 -2.62093 -5.64327
upperneck 12.3295 -3.74989 5.30584
head 5.21511 -1.84776 2.31067
rclavicle -2.14563e-014 -1.09332e-015
rhumerus -46.7582 21.131 -103.488
rradius 34.8672
rwrist 20.2012
rhand -6.53044 -52.0961
rfingers 7.12502
rthumb 19.3224 -441.156
lclavicle -2.14563e-014 -1.09332e-015
lhumerus -43.1519 -6.98595 91.5198
lradius 34.1456
lwrist -18.2704
lhand -4.50427 -35.4371
lfingers 7.12502
lthumb 21.2697 -6.58417
rfemur 1.83414 19.9466 27.2486
rtibia 11.9191
rfoot -12.8048 -33.1613
rtoes 2.44754
lfemur -3.60266 -22.5849 -24.7301
ltibia 20.3128
lfoot -20.1093 24.875
ltoes -23.717
382
root 7.68501 15.6334 14.5548 -180.171 -0.482502 -179.413
lowerback 6.87041 1.24113 0.60883
upperback -4.7332 1.62026 -0.113097
thorax -8.84192 0.70376 -0.687895
lowerneck -7.86898 -2.65938 -5.77455
upperneck 12.1037 -3.77623 5.35541
head 5.13669 -1.8604 2.347
rclavicle -1.17407e-014 -2.5842e-015
rhumerus -46.5964 21.404 -103.479
rradius 34.9147
rwrist 19.8478
rhand -6.65238 -52.103
rfingers 7.12502
rthumb 19.2051 -441.175
lclavicle -1.17407e-014 -2.5842e-015
lhumerus -42.8795 -6.94194 91.5296
lradius 34.1059
lwrist -18.3186
lhand -5.20064 -36.0173
lfingers 7.12502
lthumb 20.6006 -7.09045
rfemur 1.87889 19.9751 27.3331
rtibia 11.9882
rfoot -13.0787 -33.2644
rtoes 2.9526
lfemur -3.57177 -22.5058 -24.6785
ltibia 20.3228
lfoot -20.0589 24.7237
ltoes -23.8633
383
root 7.68347 15.6311 14.5541 -180.225 -0.559637 -179.431
lowerback 6.87783 1.19428 0.592384
upperback -4.68913 1.55818 -0.113226
thorax -8.79961 0.676152 -0.669638
lowerneck -7.93417 -2.64232 -5.77219
upperneck 12.1644 -3.74727 5.31566
head 5.16412 -1.84775 2.33553
rclavicle -1.40516e-014 -1.59028e-015
rhumerus -46.5443 21.6305 -103.6
rradius 34.9468
rwrist 19.4861
rhand -6.41854 -52.3377
rfingers 7.12502
rthumb 19.43 -441.387
lclavicle -1.40516e-014 -1.59028e-015
lhumerus -42.844 -6.95007 91.5194
lradius 34.1406
lwrist -18.1756
lhand -4.45779 -35.4565
lfingers 7.12502
lthumb 21.3143 -6.60863
rfemur 1.93946 19.9299 27.3368
rtibia 12.0061
rfoot -13.2283 -33.2618
rtoes 3.19666
lfemur -3.55403 -22.3872 -24.7079
ltibia 20.3828
lfoot -20.0026 24.5925
ltoes -24.2312
384
root 7.68135 15.629 14.5533 -180.282 -0.563058 -179.422
lowerback 6.98022 1.18589 0.656549
upperback -4.7051 1.55336 -0.133903
thorax -8.8751 0.668585 -0.729488
lowerneck -8.03841 -2.62896 -5.82992
upperneck 12.3719 -3.73829 5.36072
head 5.24726 -1.84472 2.35846
rclavicle 1.81391e-015 2.5842e-015
rhumerus -46.5928 21.7219 -103.707
rradius 34.981
rwrist 19.4366
rhand -6.2416 -52.4332
rfingers 7.12502
rthumb 19.6001 -441.465
lclavicle 1.81391e-015 2.5842e-015
lhumerus -42.8804 -7.07151 91.5611
lradius 34.1279
lwrist -18.0249
lhand -3.13784 -34.4472
lfingers 7.12502
lthumb 22.5817 -5.74799
rfemur 2.00135 19.9021 27.3699
rtibia 12.036
rfoot -13.0957 -33.2743
rtoes 2.99005
lfemur -3.51372 -22.2498 -24.7245
ltibia 20.4283
lfoot -19.9484 24.4839
ltoes -24.5718
385
root 7.6781 15.6278 14.5521 -180.352 -0.540858 -179.383
lowerback 6.97559 1.21203 0.724687
upperback -4.65917 1.59915 -0.125394
thorax -8.82003 0.688799 -0.764702
lowerneck -8.07477 -2.65927 -5.83276
upperneck 12.4534 -3.77358 5.29562
head 5.2797 -1.86653 2.33543
rclavicle -1.06847e-014 -9.93923e-017
rhumerus -46.6289 21.7637 -103.698
rradius 35.0901
rwrist 19.3898
rhand -6.2812 -52.4778
rfingers 7.12502
rthumb 19.562 -441.514
lclavicle -1.06847e-014 -9.93923e-017
lhumerus -42.8574 -7.14692 91.6242
lradius 34.1523
lwrist -18.0187
lhand -2.43133 -33.9596
lfingers 7.12502
lthumb 23.2596 -5.34443
rfemur 2.03745 19.9066 27.4268
rtibia 12.1261
rfoot -12.6958 -33.2954
rtoes 2.12721
lfemur -3.43706 -22.1543 -24.7208
ltibia 20.4306
lfoot -19.9947 24.4263
ltoes -24.6448
386
root 7.6758 15.6286 14.5515 -180.419 -0.489752 -179.408
lowerback 6.93558 1.21995 0.664098
upperback -4.57612 1.60902 -0.0987324
thorax -8.70843 0.701264 -0.702015
lowerneck -8.17116 -2.65805 -5.79591
upperneck 12.5252 -3.75641 5.17323
head 5.31458 -1.86244 2.29118
rclavicle -1.66855e-014 -1.2921e-015
rhumerus -46.5651 21.8519 -103.623
rradius 35.1937
rwrist 19.2175
rhand -6.1492 -52.4509
rfingers 7.12502
rthumb 19.6889 -441.474
lclavicle -1.66855e-014 -1.2921e-015
lhumerus -42.8023 -7.11521 91.6319
lradius 34.229
lwrist -18.035
lhand -2.23181 -33.9396
lfingers 7.12502
lthumb 23.451 -5.34871
rfemur 2.05614 19.7317 27.3797
rtibia 12.1792
rfoot -12.6015 -33.0873
rtoes 1.79423
lfemur -3.3755 -22.1122 -24.7869
ltibia 20.4539
lfoot -20.1594 24.3597
ltoes -23.9176
387
root 7.67459 15.6281 14.551 -180.484 -0.470024 -179.414
lowerback 6.95912 1.20646 0.633016
upperback -4.52617 1.59261 -0.0736679
thorax -8.66982 0.697733 -0.655783
lowerneck -8.2252 -2.63727 -5.82755
upperneck 12.5577 -3.72063 5.16662
head 5.3323 -1.84581 2.2964
rclavicle 1.38528e-014 1.98785e-016
rhumerus -46.4845 21.9497 -103.574
rradius 35.1805
rwrist 19.2004
rhand -5.88316 -52.4082
rfingers 7.12502
rthumb 19.9447 -441.405
lclavicle 1.38528e-014 1.98785e-016
lhumerus -42.6955 -6.99207 91.5777
lradius 34.1874
lwrist -18.0673
lhand -2.03678 -33.967
lfingers 7.12502
lthumb 23.6381 -5.40017
rfemur 2.12599 19.6699 27.389
rtibia 12.1773
rfoot -12.6839 -32.9887
rtoes 1.99176
lfemur -3.32703 -22.1562 -24.8244
ltibia 20.4837
lfoot -20.2932 24.3203
ltoes -23.1194
388
root 7.67308 15.6265 14.5517 -180.521 -0.492143 -179.361
lowerback 7.04883 1.19877 0.727361
upperback -4.53926 1.59422 -0.0660754
thorax -8.73445 0.692642 -0.703259
lowerneck -8.18102 -2.65873 -5.91377
upperneck 12.5399 -3.75006 5.23384
head 5.32373 -1.86079 2.32993
rclavicle 2.80908e-014 5.1684e-015
rhumerus -46.4831 21.9746 -103.593
rradius 35.1034
rwrist 19.1984
rhand -5.7742 -52.5301
rfingers 7.12502
rthumb 20.0494 -441.516
lclavicle 2.80908e-014 5.1684e-015
lhumerus -42.6482 -6.92344 91.5427
lradius 34.1237
lwrist -18.0908
lhand -1.87429 -33.9756
lfingers 7.12502
lthumb 23.794 -5.42897
rfemur 2.16259 19.7553 27.4826
rtibia 12.2192
rfoot -12.6258 -33.0844
rtoes 1.88939
lfemur -3.29023 -22.1482 -24.7801
ltibia 20.4708
lfoot -20.1611 24.3589
ltoes -23.8467
389
root 7.67185 15.6277 14.5523 -180.528 -0.499959 -179.32
lowerback 7.18807 1.20214 0.859271
upperback -4.61394 1.60856 -0.114467
thorax -8.89251 0.687126 -0.834854
lowerneck -8.13708 -2.68224 -5.91111
upperneck 12.6214 -3.79921 5.26355
head 5.3448 -1.88628 2.33545
rclavicle -1.05356e-014 1.19271e-015
rhumerus -46.5584 21.9086 -103.727
rradius 35.0006
rwrist 19.1323
rhand -5.95557 -52.5739
rfingers 7.12502
rthumb 19.8751 -441.578
lclavicle -1.05356e-014 1.19271e-015
lhumerus -42.7615 -6.94059 91.4636
lradius 34.1845
lwrist -18.1362
lhand -1.56469 -33.9489
lfingers 7.12502
lthumb 24.0908 -5.44123
rfemur 2.11258 19.6232 27.5133
rtibia 12.3085
rfoot -12.6658 -33.0338
rtoes 2.16995
lfemur -3.27609 -22.0382 -24.7381
ltibia 20.4626
lfoot -19.9866 24.4394
ltoes -24.8588
390
root 7.67073 15.6289 14.5514 -180.553 -0.494147 -179.371
lowerback 7.0936 1.221 0.75741
upperback -4.55204 1.62496 -0.101068
thorax -8.77235 0.704171 -0.762839
lowerneck -8.17411 -2.6803 -5.8329
upperneck 12.646 -3.78672 5.13495
head 5.35428 -1.88381 2.28274
rclavicle -2.43263e-014 -2.5842e-015
rhumerus -46.4815 21.9624 -103.682
rradius 34.9475
rwrist 19.1224
rhand -6.05673 -52.5927
rfingers 7.12502
rthumb 19.7778 -441.606
lclavicle -2.43263e-014 -2.5842e-015
lhumerus -42.6357 -6.82661 91.4726
lradius 34.1529
lwrist -18.2659
lhand -2.15215 -34.4377
lfingers 7.12502
lthumb 23.5275 -5.85665
rfemur 2.08305 19.423 27.4423
rtibia 12.3987
rfoot -12.5423 -32.8883
rtoes 2.01274
lfemur -3.24357 -22.0038 -24.8084
ltibia 20.4646
lfoot -19.963 24.4936
ltoes -25.2005
391
root 7.67036 15.6251 14.5495 -180.632 -0.526897 -179.42
lowerback 7.07599 1.20924 0.680813
upperback -4.48713 1.60423 -0.095639
thorax -8.69402 0.701207 -0.709974
lowerneck -8.16885 -2.66791 -5.81954
upperneck 12.6116 -3.76501 5.11001
head 5.34083 -1.8734 2.27447
rclavicle -1.3331e-014 -2.68359e-015
rhumerus -46.4091 21.9627 -103.609
rradius 34.936
rwrist 19.2478
rhand -5.87184 -52.6061
rfingers 7.12502
rthumb 19.9555 -441.601
lclavicle -1.3331e-014 -2.68359e-015
lhumerus -42.5097 -6.76491 91.4832
lradius 34.0696
lwrist -18.2927
lhand -3.73039 -35.5473
lfingers 7.12502
lthumb 22.0128 -6.77994
rfemur 2.15139 19.5107 27.4508
rtibia 12.5069
rfoot -12.4127 -32.9949
rtoes 1.57819
lfemur -3.12964 -22.0296 -24.8967
ltibia 20.4274
lfoot -19.9912 24.3913
ltoes -24.8403
392
root 7.67064 15.6216 14.5485 -180.723 -0.55985 -179.435
lowerback 7.15521 1.19061 0.651021
upperback -4.45764 1.57976 -0.0861876
thorax -8.71002 0.69237 -0.681377
lowerneck -8.15157 -2.68032 -5.86099
upperneck 12.6103 -3.77982 5.1254
head 5.33939 -1.882 2.28517
rclavicle 8.27441e-015 1.88845e-015
rhumerus -46.3413 22.0467 -103.617
rradius 34.9043
rwrist 18.9878
rhand -5.72185 -52.6993
rfingers 7.12502
rthumb 20.0997 -441.68
lclavicle 8.27441e-015 1.88845e-015
lhumerus -42.5041 -6.78101 91.487
lradius 34.0959
lwrist -18.2176
lhand -4.45386 -36.1349
lfingers 7.12502
lthumb 21.3181 -7.28741
rfemur 2.21474 19.6427 27.5032
rtibia 12.6515
rfoot -12.7439 -33.1509
rtoes 2.31134
lfemur -2.99513 -22.0015 -24.9449
ltibia 20.3672
lfoot -20.0252 24.2695
ltoes -24.3559
393
root 7.67065 15.6231 14.5503 -180.736 -0.559444 -179.471
lowerback 7.22856 1.18744 0.625925
upperback -4.46949 1.57238 -0.100594
thorax -8.76641 0.689336 -0.683402
lowerneck -8.2463 -2.68637 -5.80679
upperneck 12.7356 -3.78669 5.04388
head 5.39232 -1.88811 2.24896
rclavicle -1.19892e-014 -1.78906e-015
rhumerus -46.3015 22.1689 -103.683
rradius 34.8722
rwrist 18.6291
rhand -5.62947 -52.8991
rfingers 7.12502
rthumb 20.1885 -441.87
lclavicle -1.19892e-014 -1.78906e-015
lhumerus -42.4675 -6.84324 91.4942
lradius 34.0325
lwrist -18.1209
lhand -3.64275 -35.583
lfingers 7.12502
lthumb 22.097 -6.82563
rfemur 2.17178 19.5912 27.455
rtibia 12.7512
rfoot -13.0942 -33.0906
rtoes 3.07964
lfemur -3.00017 -21.8908 -24.9688
ltibia 20.3464
lfoot -19.929 24.2263
ltoes -24.7432
